<?xml version="1.0" encoding="UTF-8" standalone="no"?>
<!-- Created with Inkscape (http://www.inkscape.org/) -->

<svg
   xmlns:dc="http://purl.org/dc/elements/1.1/"
   xmlns:cc="http://creativecommons.org/ns#"
   xmlns:rdf="http://www.w3.org/1999/02/22-rdf-syntax-ns#"
   xmlns:svg="http://www.w3.org/2000/svg"
   xmlns="http://www.w3.org/2000/svg"
   xmlns:sodipodi="http://sodipodi.sourceforge.net/DTD/sodipodi-0.dtd"
   xmlns:inkscape="http://www.inkscape.org/namespaces/inkscape"
   width="639.78552"
   height="179.98207"
   id="svg2"
   version="1.1"
   inkscape:version="0.48.4 r9939"
   inkscape:export-filename="D:\My Stuff\Dropbox\Digital stuff\Arty things\Requests\mama-business_card.png"
   inkscape:export-xdpi="342.08023"
   inkscape:export-ydpi="342.08023"
   sodipodi:docname="music_bg.svg">
  <defs
     id="defs4">
    <linearGradient
       id="linearGradient3940">
      <stop
         id="stop3948"
         offset="0"
         style="stop-color:#000000;stop-opacity:1;" />
      <stop
         style="stop-color:#000000;stop-opacity:0.62352941;"
         offset="0.25"
         id="stop3952" />
      <stop
         style="stop-color:#000000;stop-opacity:0.24705882;"
         offset="0.5"
         id="stop3950" />
      <stop
         style="stop-color:#000000;stop-opacity:0;"
         offset="1"
         id="stop3944" />
    </linearGradient>
    <inkscape:perspective
       sodipodi:type="inkscape:persp3d"
       inkscape:vp_x="0 : 526.18109 : 1"
       inkscape:vp_y="0 : 1000 : 0"
       inkscape:vp_z="744.09448 : 526.18109 : 1"
       inkscape:persp3d-origin="372.04724 : 350.78739 : 1"
       id="perspective2475" />
    <inkscape:perspective
       id="perspective2477"
       inkscape:persp3d-origin="372.04724 : 350.78739 : 1"
       inkscape:vp_z="744.09448 : 526.18109 : 1"
       inkscape:vp_y="0 : 1000 : 0"
       inkscape:vp_x="0 : 526.18109 : 1"
       sodipodi:type="inkscape:persp3d" />
    <inkscape:perspective
       sodipodi:type="inkscape:persp3d"
       inkscape:vp_x="0 : 526.18109 : 1"
       inkscape:vp_y="0 : 1000 : 0"
       inkscape:vp_z="744.09448 : 526.18109 : 1"
       inkscape:persp3d-origin="372.04724 : 350.78739 : 1"
       id="perspective2479" />
    <inkscape:perspective
       id="perspective2481"
       inkscape:persp3d-origin="287.25 : 20.064538 : 1"
       inkscape:vp_z="574.5 : 30.096807 : 1"
       inkscape:vp_y="0 : 1000 : 0"
       inkscape:vp_x="0 : 30.096807 : 1"
       sodipodi:type="inkscape:persp3d" />
    <inkscape:perspective
       id="perspective2483"
       inkscape:persp3d-origin="130 : 24 : 1"
       inkscape:vp_z="260 : 36 : 1"
       inkscape:vp_y="0 : 1000 : 0"
       inkscape:vp_x="0 : 36 : 1"
       sodipodi:type="inkscape:persp3d" />
    <inkscape:perspective
       id="perspective2407"
       inkscape:persp3d-origin="372.04724 : 350.78739 : 1"
       inkscape:vp_z="744.09448 : 526.18109 : 1"
       inkscape:vp_y="0 : 1000 : 0"
       inkscape:vp_x="0 : 526.18109 : 1"
       sodipodi:type="inkscape:persp3d" />
    <inkscape:perspective
       sodipodi:type="inkscape:persp3d"
       inkscape:vp_x="0 : 526.18109 : 1"
       inkscape:vp_y="0 : 1000 : 0"
       inkscape:vp_z="744.09448 : 526.18109 : 1"
       inkscape:persp3d-origin="372.04724 : 350.78739 : 1"
       id="perspective2416" />
    <inkscape:perspective
       sodipodi:type="inkscape:persp3d"
       inkscape:vp_x="0 : 36 : 1"
       inkscape:vp_y="0 : 1000 : 0"
       inkscape:vp_z="260 : 36 : 1"
       inkscape:persp3d-origin="130 : 24 : 1"
       id="perspective2508" />
    <inkscape:perspective
       sodipodi:type="inkscape:persp3d"
       inkscape:vp_x="0 : 526.18109 : 1"
       inkscape:vp_y="0 : 1000 : 0"
       inkscape:vp_z="744.09448 : 526.18109 : 1"
       inkscape:persp3d-origin="372.04724 : 350.78739 : 1"
       id="perspective2423" />
    <inkscape:perspective
       id="perspective2425"
       inkscape:persp3d-origin="372.04724 : 350.78739 : 1"
       inkscape:vp_z="744.09448 : 526.18109 : 1"
       inkscape:vp_y="0 : 1000 : 0"
       inkscape:vp_x="0 : 526.18109 : 1"
       sodipodi:type="inkscape:persp3d" />
    <inkscape:perspective
       sodipodi:type="inkscape:persp3d"
       inkscape:vp_x="0 : 526.18109 : 1"
       inkscape:vp_y="0 : 1000 : 0"
       inkscape:vp_z="744.09448 : 526.18109 : 1"
       inkscape:persp3d-origin="372.04724 : 350.78739 : 1"
       id="perspective2543" />
    <inkscape:perspective
       id="perspective58"
       inkscape:persp3d-origin="287.25 : 20.064538 : 1"
       inkscape:vp_z="574.5 : 30.096807 : 1"
       inkscape:vp_y="0 : 1000 : 0"
       inkscape:vp_x="0 : 30.096807 : 1"
       sodipodi:type="inkscape:persp3d" />
    <inkscape:perspective
       id="perspective2766"
       inkscape:persp3d-origin="130 : 24 : 1"
       inkscape:vp_z="260 : 36 : 1"
       inkscape:vp_y="0 : 1000 : 0"
       inkscape:vp_x="0 : 36 : 1"
       sodipodi:type="inkscape:persp3d" />
    <inkscape:perspective
       sodipodi:type="inkscape:persp3d"
       inkscape:vp_x="0 : 526.18109 : 1"
       inkscape:vp_y="0 : 1000 : 0"
       inkscape:vp_z="744.09448 : 526.18109 : 1"
       inkscape:persp3d-origin="372.04724 : 350.78739 : 1"
       id="perspective2390" />
    <inkscape:perspective
       id="perspective10"
       inkscape:persp3d-origin="372.04724 : 350.78739 : 1"
       inkscape:vp_z="744.09448 : 526.18109 : 1"
       inkscape:vp_y="0 : 1000 : 0"
       inkscape:vp_x="0 : 526.18109 : 1"
       sodipodi:type="inkscape:persp3d" />
  </defs>
  <sodipodi:namedview
     id="base"
     pagecolor="#ffffff"
     bordercolor="#666666"
     borderopacity="1.0"
     inkscape:pageopacity="0.0"
     inkscape:pageshadow="2"
     inkscape:zoom="0.9899495"
     inkscape:cx="375.31083"
     inkscape:cy="51.24451"
     inkscape:document-units="px"
     inkscape:current-layer="layer1"
     showgrid="false"
     inkscape:window-width="1366"
     inkscape:window-height="745"
     inkscape:window-x="-8"
     inkscape:window-y="-8"
     inkscape:window-maximized="1"
     fit-margin-top="-120"
     fit-margin-left="0"
     fit-margin-right="-3"
     fit-margin-bottom="0" />
  <metadata
     id="metadata7">
    <rdf:RDF>
      <cc:Work
         rdf:about="">
        <dc:format>image/svg+xml</dc:format>
        <dc:type
           rdf:resource="http://purl.org/dc/dcmitype/StillImage" />
        <dc:title />
      </cc:Work>
    </rdf:RDF>
  </metadata>
  <g
     inkscape:label="Layer 1"
     inkscape:groupmode="layer"
     id="layer1"
     transform="translate(-39.557308,-282.59296)">
    <path
       style="fill:none;stroke:#ffffff;stroke-width:3;stroke-linecap:butt;stroke-linejoin:miter;stroke-miterlimit:4;stroke-opacity:1;stroke-dasharray:none"
       d="m 41.057308,164.09296 c 0,0 14.511969,111.67713 56.701608,169.06483 42.189644,57.3877 111.342664,80.48596 182.053344,71.89966 99.99644,-12.14243 123.23861,-36.36549 197.98989,-45.45686 74.75129,-9.09138 35.35534,35.35534 44.44672,52.52793 m 0,0 c 9.09137,17.17259 40.4061,13.13198 158.59395,-43.43656"
       id="path3054-4"
       inkscape:connector-curvature="0"
       sodipodi:nodetypes="csssccc" />
    <path
       id="path3001"
       d="m 166.66152,346.36236 c -0.8511,8.93805 -8.75288,14.76771 -15.64416,19.38198 -3.1128,2.00632 -0.51569,0.33064 -2.13034,1.31518 -0.0252,-1.39973 0.10727,-5.01972 0.36582,-6.07305 1.83663,-7.48714 10.10522,-17.21617 16.27149,-20.19815 0.55211,1.78676 1.23943,2.05561 1.13719,5.57404 z m -6.98638,45.64537 c -2.962,-3.21461 -7.37173,-4.76573 -11.6757,-4.84904 0.14845,-3.62563 0.29661,-7.2513 0.44452,-10.87411 7.86667,-5.25119 16.51393,-11.44015 18.80468,-21.20721 1.38413,-6.23016 1.77603,-13.25732 -1.16819,-19.10729 -4.84087,-0.56857 -9.3123,4.46611 -12.53236,7.51006 -5.63542,6.67979 -6.43284,15.978 -6.4018,24.36933 -2.7907,2.22914 -6.36554,3.83689 -9.14499,6.18179 -7.87062,5.18926 -15.33358,12.82818 -16.08282,22.72283 -1.3059,9.45436 3.75241,19.46573 12.52449,23.48184 3.3231,1.56392 7.00468,2.37057 10.6753,2.36557 -0.61143,6.43293 0.3531,13.54818 -3.4601,19.16589 -2.83842,4.10099 -9.46101,6.90653 -13.35253,3.78476 -1.50923,-1.21385 -0.29118,-0.20517 -1.20356,-0.96801 3.14188,-0.13701 6.17594,-1.81503 7.19536,-3.15708 3.14991,-3.65017 0.86503,-10.42829 -4.21412,-10.59837 -6.37165,-1.1059 -10.66569,7.06812 -7.42744,12.19723 2.9489,4.99999 10.03804,5.77377 15.06175,3.85684 5.7296,-2.3212 7.65714,-8.82998 8.1781,-14.60495 0.17377,-1.94049 0.32702,-7.71129 0.60344,-9.74538 2.09153,-0.31808 0.6186,-0.0514 3.59235,-0.60844 8.03813,-1.50217 14.54979,-9.57081 13.9721,-18.02016 -0.0902,-4.29523 -1.33824,-8.74586 -4.38848,-11.8961 z m -1.56908,16.45882 c -0.4866,5.70302 -5.31353,11.54863 -11.34679,12.23537 0.0524,-2.30481 0.0694,-2.93049 0.0685,-4.28181 -0.01,-7.16534 0.63525,-14.39832 0.95315,-21.59889 4.6499,0.41561 9.40461,3.41122 10.09391,8.32387 0.36957,1.75212 0.30885,3.54572 0.23122,5.32146 z m -17.28236,11.7676 c -7.21501,-0.99338 -13.1564,-7.20467 -13.5802,-14.52626 -0.92603,-6.44965 1.04554,-13.27891 5.85359,-17.80034 4.05787,-4.16653 9.00831,-7.28871 13.78341,-10.54694 -0.10185,3.26197 -0.20369,6.52392 -0.30609,9.78869 -8.81773,0.56133 -16.62118,10.52472 -13.08835,19.15016 1.07665,2.43425 4.33184,7.31621 6.86712,6.09441 -2.71901,-2.51796 -4.60575,-6.30956 -3.31513,-10.04197 0.46956,-3.64177 5.43285,-7.41955 9.18478,-7.52521 -0.33632,8.28897 -0.6746,17.55306 -1.01147,25.84484 -1.47261,0.005 -2.94299,-0.15627 -4.38766,-0.43738 z"
       inkscape:connector-curvature="0"
       style="fill:#ffffff;fill-opacity:1" />
    <text
       font-size="2.1995"
       id="text4"
       style="font-size:13.69551468px;text-anchor:start;fill:currentColor;font-family:Century Schoolbook L"
       x="-23.064072"
       y="-509.84772"
       transform="matrix(0.99537497,0.09606593,-0.09606593,0.99537497,0,0)">
      <tspan
         id="tspan6" />
    </text>
    <g
       id="g3021"
       transform="matrix(8.9727275,1.7643954,-1.7643954,8.9727275,373.80509,-1088.241)">
      <path
         style="fill:#ffffff;fill-opacity:1"
         inkscape:connector-curvature="0"
         id="path20"
         d="m 13.79997,166.10678 c 0.224,0 0.436,0.116 0.436,0.364 0,0.288 -0.224,0.484 -0.412,0.596 -0.144,0.084 -0.304,0.144 -0.468,0.144 -0.224,0 -0.436,-0.116 -0.436,-0.364 0,-0.288 0.224,-0.484 0.412,-0.596 0.144,-0.084 0.304,-0.144 0.468,-0.144 z" />
      <rect
         style="fill:#ffffff;fill-opacity:1"
         id="rect24"
         ry="0.039999999"
         height="3.3122001"
         width="0.13"
         y="163.15877"
         x="14.106071" />
      <path
         style="fill:#ffffff;fill-opacity:1"
         inkscape:connector-curvature="0"
         id="path28"
         d="m 14.23607,163.19878 c 0,0.792 0.836,1.34 0.836,2.132 0,0.284 -0.064,0.564 -0.168,0.828 -0.02,0.032 -0.048,0.048 -0.076,0.048 -0.052,0 -0.104,-0.044 -0.092,-0.108 0.104,-0.244 0.168,-0.504 0.168,-0.768 0,-0.416 -0.38,-0.832 -0.668,-1.132 h -0.064 v -1 h 0.064 z" />
    </g>
    <g
       id="g15748"
       transform="matrix(0.81380216,-0.07541494,0.07541494,0.81380216,-203.00447,131.4539)">
      <g
         id="g15720"
         transform="translate(216.2442,95.29377)">
        <path
           style="fill:#ffffff;fill-opacity:1;fill-rule:evenodd;stroke:none"
           id="path15722"
           d="m 303.07455,299.63785 c -3.39584,1.81997 -5.20528,5.11455 -4.09222,7.59296 1.18726,2.64364 5.26701,3.38972 9.10658,1.66537 3.83956,-1.72436 5.99216,-5.2694 4.8049,-7.91303 -1.18727,-2.64364 -5.26701,-3.38972 -9.10658,-1.66537 -0.23997,0.10777 -0.48628,0.19874 -0.71268,0.32007 z"
           inkscape:connector-curvature="0" />
        <path
           style="fill:none;stroke:#ffffff;stroke-width:1.5;stroke-linecap:butt;stroke-linejoin:miter;stroke-miterlimit:4;stroke-opacity:1;stroke-dasharray:none"
           id="path15724"
           d="m 299.4045,305.82483 0,33.74719"
           inkscape:connector-curvature="0" />
      </g>
      <g
         id="g15738"
         transform="translate(249.7859,95.18969)">
        <path
           style="fill:#ffffff;fill-opacity:1;fill-rule:evenodd;stroke:none"
           id="path15740"
           d="m 303.03285,299.74193 c -3.39584,1.81997 -5.20528,5.11455 -4.09222,7.59296 1.18726,2.64364 5.26701,3.38972 9.10658,1.66537 3.83956,-1.72436 5.99216,-5.2694 4.8049,-7.91303 -1.18727,-2.64364 -5.26701,-3.38972 -9.10658,-1.66537 -0.23997,0.10777 -0.48628,0.19874 -0.71268,0.32007 z"
           inkscape:connector-curvature="0" />
        <path
           style="fill:none;stroke:#ffffff;stroke-width:1.5;stroke-linecap:butt;stroke-linejoin:miter;stroke-miterlimit:4;stroke-opacity:1;stroke-dasharray:none"
           id="path15742"
           d="m 299.3628,305.92891 0,33.64311"
           inkscape:connector-curvature="0" />
      </g>
      <rect
         style="fill:#ffffff;fill-opacity:1;fill-rule:evenodd;stroke:none"
         id="rect15744"
         y="422.7186"
         x="514.89868"
         height="4.5999999"
         width="35" />
      <rect
         style="fill:#ffffff;fill-opacity:1;fill-rule:evenodd;stroke:none"
         id="rect15746"
         y="431.51859"
         x="514.89874"
         height="4.5999999"
         width="35" />
    </g>
    <g
       id="g11065"
       transform="matrix(0.99286617,0.11923409,-0.11923409,0.99286617,-33.423246,358.86784)">
      <path
         id="path11056"
         style="fill:#ffffff;fill-opacity:1;fill-rule:evenodd;stroke:none"
         d="m 499.07876,-46.172582 c -2.19156,2.238217 -2.79359,5.234377 -1.32703,6.886227 1.56434,1.761975 4.91088,1.348022 7.46993,-0.923988 2.55905,-2.272018 3.36636,-5.545981 1.80202,-7.307949 -1.56434,-1.761973 -4.91086,-1.348024 -7.46992,0.923987 -0.15995,0.142 -0.32889,0.272507 -0.475,0.421723 z"
         inkscape:connector-curvature="0" />
      <path
         id="path11058"
         style="fill:none;stroke:#ffffff;stroke-width:1.21956778;stroke-linecap:butt;stroke-linejoin:miter;stroke-miterlimit:4;stroke-opacity:1;stroke-dasharray:none"
         d="m 497.76937,-40.403211 8.17301,26.056483"
         inkscape:connector-curvature="0" />
    </g>
    <g
       transform="matrix(0.98128287,-0.07618598,0.07618598,0.98128287,-39.157294,10.971114)"
       id="layer1-8"
       inkscape:label="Layer 1">
      <g
         id="g2281"
         transform="matrix(1.2084031,-0.24960144,0.24960144,1.2084031,212.5487,442.70591)">
        <path
           id="path86"
           style="fill:#000000;fill-rule:nonzero;stroke:#000000;stroke-width:0;stroke-linecap:butt;stroke-linejoin:round;stroke-miterlimit:10"
           d="m 94.51026,34.309462 0.368088,0 0,-23.706652 -0.368088,0 0,23.706652 z"
           inkscape:connector-curvature="0" />
        <path
           id="path90"
           style="fill:#000000;stroke:#ffffff;stroke-width:0.58674884;stroke-linecap:butt;stroke-linejoin:round;stroke-miterlimit:10;stroke-opacity:1"
           d="m 94.51026,34.309462 0.368088,0 0,-23.706652 -0.368088,0 0,23.706652 z"
           inkscape:connector-curvature="0" />
        <path
           id="path102"
           style="fill:#ffffff;fill-opacity:1;fill-rule:evenodd;stroke:#000000;stroke-width:0;stroke-linecap:butt;stroke-linejoin:round;stroke-miterlimit:10"
           d="m 91.375752,31.348523 c -1.202928,0.14871 -2.432364,0.643427 -3.490992,1.466483 -1.202928,0.879005 -2.02452,2.052485 -2.28954,3.255413 -0.05742,0.384289 -0.05742,1.057162 0.02945,1.351636 0.263556,1.029188 1.086612,1.672614 2.317512,1.937642 0.350424,0.05742 1.236792,0.05742 1.674084,0 1.114584,-0.207605 2.260092,-0.708212 3.253944,-1.438508 1.17348,-0.879006 1.996536,-2.052486 2.261556,-3.255412 0.05743,-0.38429 0.05743,-1.057163 -0.02945,-1.379613 -0.26502,-0.965875 -1.058628,-1.616664 -2.232108,-1.880219 -0.320976,-0.05742 -1.144032,-0.08687 -1.494456,-0.05742 z"
           inkscape:connector-curvature="0" />
      </g>
      <g
         id="g3389"
         transform="matrix(1.2084031,-0.24960144,0.24960144,1.2084031,236.99108,432.96294)">
        <path
           id="path3391"
           style="fill:#000000;fill-rule:nonzero;stroke:#000000;stroke-width:0;stroke-linecap:butt;stroke-linejoin:round;stroke-miterlimit:10"
           d="m 94.51026,34.309462 0.368088,0 0,-23.706652 -0.368088,0 0,23.706652 z"
           inkscape:connector-curvature="0" />
        <path
           id="path3393"
           style="fill:#000000;stroke:#ffffff;stroke-width:0.58674884;stroke-linecap:butt;stroke-linejoin:round;stroke-miterlimit:10;stroke-opacity:1"
           d="m 94.51026,34.309462 0.368088,0 0,-23.706652 -0.368088,0 0,23.706652 z"
           inkscape:connector-curvature="0" />
        <path
           id="path3395"
           style="fill:#ffffff;fill-opacity:1;fill-rule:evenodd;stroke:#000000;stroke-width:0;stroke-linecap:butt;stroke-linejoin:round;stroke-miterlimit:10"
           d="m 91.375752,31.348523 c -1.202928,0.14871 -2.432364,0.643427 -3.490992,1.466483 -1.202928,0.879005 -2.02452,2.052485 -2.28954,3.255413 -0.05742,0.384289 -0.05742,1.057162 0.02945,1.351636 0.263556,1.029188 1.086612,1.672614 2.317512,1.937642 0.350424,0.05742 1.236792,0.05742 1.674084,0 1.114584,-0.207605 2.260092,-0.708212 3.253944,-1.438508 1.17348,-0.879006 1.996536,-2.052486 2.261556,-3.255412 0.05743,-0.38429 0.05743,-1.057163 -0.02945,-1.379613 -0.26502,-0.965875 -1.058628,-1.616664 -2.232108,-1.880219 -0.320976,-0.05742 -1.144032,-0.08687 -1.494456,-0.05742 z"
           inkscape:connector-curvature="0" />
      </g>
      <g
         id="g3397"
         transform="matrix(1.2084031,-0.24960144,0.24960144,1.2084031,261.43344,423.21985)">
        <path
           id="path3399"
           style="fill:#000000;fill-rule:nonzero;stroke:#000000;stroke-width:0;stroke-linecap:butt;stroke-linejoin:round;stroke-miterlimit:10"
           d="m 94.51026,34.309462 0.368088,0 0,-23.706652 -0.368088,0 0,23.706652 z"
           inkscape:connector-curvature="0" />
        <path
           id="path3401"
           style="fill:#000000;stroke:#ffffff;stroke-width:0.58674884;stroke-linecap:butt;stroke-linejoin:round;stroke-miterlimit:10;stroke-opacity:1"
           d="m 94.51026,34.309462 0.368088,0 0,-23.706652 -0.368088,0 0,23.706652 z"
           inkscape:connector-curvature="0" />
        <path
           id="path3403"
           style="fill:#ffffff;fill-opacity:1;fill-rule:evenodd;stroke:#000000;stroke-width:0;stroke-linecap:butt;stroke-linejoin:round;stroke-miterlimit:10"
           d="m 91.375752,31.348523 c -1.202928,0.14871 -2.432364,0.643427 -3.490992,1.466483 -1.202928,0.879005 -2.02452,2.052485 -2.28954,3.255413 -0.05742,0.384289 -0.05742,1.057162 0.02945,1.351636 0.263556,1.029188 1.086612,1.672614 2.317512,1.937642 0.350424,0.05742 1.236792,0.05742 1.674084,0 1.114584,-0.207605 2.260092,-0.708212 3.253944,-1.438508 1.17348,-0.879006 1.996536,-2.052486 2.261556,-3.255412 0.05743,-0.38429 0.05743,-1.057163 -0.02945,-1.379613 -0.26502,-0.965875 -1.058628,-1.616664 -2.232108,-1.880219 -0.320976,-0.05742 -1.144032,-0.08687 -1.494456,-0.05742 z"
           inkscape:connector-curvature="0" />
      </g>
      <g
         id="g3405"
         transform="matrix(1.2084031,-0.24960144,0.24960144,1.2084031,285.87578,413.47678)">
        <path
           id="path3407"
           style="fill:#000000;fill-rule:nonzero;stroke:#000000;stroke-width:0;stroke-linecap:butt;stroke-linejoin:round;stroke-miterlimit:10"
           d="m 94.51026,34.309462 0.368088,0 0,-23.706652 -0.368088,0 0,23.706652 z"
           inkscape:connector-curvature="0" />
        <path
           id="path3409"
           style="fill:#000000;stroke:#ffffff;stroke-width:0.58674884;stroke-linecap:butt;stroke-linejoin:round;stroke-miterlimit:10;stroke-opacity:1"
           d="m 94.51026,34.309462 0.368088,0 0,-23.706652 -0.368088,0 0,23.706652 z"
           inkscape:connector-curvature="0" />
        <path
           id="path3411"
           style="fill:#ffffff;fill-opacity:1;fill-rule:evenodd;stroke:#000000;stroke-width:0;stroke-linecap:butt;stroke-linejoin:round;stroke-miterlimit:10"
           d="m 91.375752,31.348523 c -1.202928,0.14871 -2.432364,0.643427 -3.490992,1.466483 -1.202928,0.879005 -2.02452,2.052485 -2.28954,3.255413 -0.05742,0.384289 -0.05742,1.057162 0.02945,1.351636 0.263556,1.029188 1.086612,1.672614 2.317512,1.937642 0.350424,0.05742 1.236792,0.05742 1.674084,0 1.114584,-0.207605 2.260092,-0.708212 3.253944,-1.438508 1.17348,-0.879006 1.996536,-2.052486 2.261556,-3.255412 0.05743,-0.38429 0.05743,-1.057163 -0.02945,-1.379613 -0.26502,-0.965875 -1.058628,-1.616664 -2.232108,-1.880219 -0.320976,-0.05742 -1.144032,-0.08687 -1.494456,-0.05742 z"
           inkscape:connector-curvature="0" />
      </g>
      <path
         sodipodi:nodetypes="ccccc"
         id="path3413"
         d="m 402.59109,402.35797 -74.56239,24.72053 1.09607,5.30642 74.72021,-24.79982 -1.25389,-5.22713 z"
         style="fill:#ffffff;fill-opacity:1;fill-rule:evenodd;stroke:none"
         inkscape:connector-curvature="0" />
    </g>
    <path
       style="fill:none;stroke:#ffffff;stroke-width:3;stroke-linecap:butt;stroke-linejoin:miter;stroke-miterlimit:4;stroke-opacity:1;stroke-dasharray:none"
       d="m 41.057308,174.09296 c 0,0 14.511969,111.67713 56.701608,169.06483 42.189644,57.3877 111.342664,80.48596 182.053344,71.89966 99.99644,-12.14243 123.23861,-36.36549 197.98989,-45.45686 74.75129,-9.09138 35.35534,35.35534 44.44672,52.52793 m 0,0 c 9.09137,17.17259 40.4061,13.13198 158.59395,-43.43656"
       id="path3054-4-2"
       inkscape:connector-curvature="0"
       sodipodi:nodetypes="csssccc" />
    <path
       style="fill:none;stroke:#ffffff;stroke-width:3;stroke-linecap:butt;stroke-linejoin:miter;stroke-miterlimit:4;stroke-opacity:1;stroke-dasharray:none"
       d="m 41.057308,184.09296 c 0,0 14.511969,111.67713 56.701608,169.06483 42.189644,57.3877 111.342664,80.48596 182.053344,71.89966 99.99644,-12.14243 123.23861,-36.36549 197.98989,-45.45686 74.75129,-9.09138 35.35534,35.35534 44.44672,52.52793 m 0,0 c 9.09137,17.17259 40.4061,13.13198 158.59395,-43.43656"
       id="path3054-4-7"
       inkscape:connector-curvature="0"
       sodipodi:nodetypes="csssccc" />
    <path
       style="fill:none;stroke:#ffffff;stroke-width:3;stroke-linecap:butt;stroke-linejoin:miter;stroke-miterlimit:4;stroke-opacity:1;stroke-dasharray:none"
       d="m 41.057308,194.09296 c 0,0 14.511969,111.67713 56.701608,169.06483 42.189644,57.3877 111.342664,80.48596 182.053344,71.89966 99.99644,-12.14243 123.23861,-36.36549 197.98989,-45.45686 74.75129,-9.09138 35.35534,35.35534 44.44672,52.52793 m 0,0 c 9.09137,17.17259 40.4061,13.13198 158.59395,-43.43656"
       id="path3054-4-71"
       inkscape:connector-curvature="0"
       sodipodi:nodetypes="csssccc" />
    <path
       style="fill:none;stroke:#ffffff;stroke-width:3;stroke-linecap:butt;stroke-linejoin:miter;stroke-miterlimit:4;stroke-opacity:1;stroke-dasharray:none"
       d="m 41.057308,204.09296 c 0,0 14.511969,111.67713 56.701608,169.06483 42.189644,57.3877 111.342664,80.48596 182.053344,71.89966 99.99644,-12.14243 123.23861,-36.36549 197.98989,-45.45686 74.75129,-9.09138 35.35534,35.35534 44.44672,52.52793 m 0,0 c 9.09137,17.17259 40.4061,13.13198 158.59395,-43.43656"
       id="path3054-4-0"
       inkscape:connector-curvature="0"
       sodipodi:nodetypes="csssccc" />
    <g
       id="layer1-4"
       transform="matrix(1.0133442,-0.34390921,0.34390921,1.0133442,-115.82794,409.71785)">
      <g
         id="g124"
         style="fill:#000000;fill-rule:evenodd;stroke:#000000;stroke-width:0;stroke-linecap:butt;stroke-linejoin:round;stroke-miterlimit:10"
         transform="matrix(1.8,0,0,1.8,-434.91385,4.5054224)">
        <path
           id="path126"
           style="fill:#ffffff;fill-opacity:1;stroke:#000000"
           d="m 512.254,71.019 c -0.137,0.058 -0.219,0.258 -0.156,0.398 0.019,0.02 0.218,0.258 0.418,0.52 0.457,0.515 0.535,0.637 0.636,0.875 0.399,0.816 0.18,1.855 -0.519,2.512 -0.059,0.078 -0.317,0.296 -0.559,0.476 -0.695,0.598 -1.015,0.938 -1.133,1.238 -0.043,0.079 -0.043,0.157 -0.043,0.278 -0.019,0.277 0,0.301 0.821,1.254 1.113,1.336 1.91,2.273 1.972,2.332 l 0.059,0.058 -0.078,-0.039 c -1.098,-0.457 -2.332,-0.676 -2.75,-0.476 -0.141,0.058 -0.223,0.14 -0.281,0.277 -0.161,0.34 -0.118,0.84 0.121,1.574 0.218,0.66 0.656,1.535 1.093,2.192 0.18,0.281 0.52,0.718 0.559,0.738 0.059,0.059 0.141,0.039 0.199,0 0.059,-0.078 0.059,-0.141 -0.058,-0.277 -0.418,-0.598 -0.617,-1.836 -0.379,-2.493 0.097,-0.296 0.219,-0.457 0.437,-0.558 0.578,-0.258 1.856,0.062 2.391,0.597 0.039,0.04 0.121,0.122 0.16,0.141 0.141,0.059 0.34,-0.019 0.399,-0.16 0.082,-0.141 0.039,-0.238 -0.141,-0.457 -0.336,-0.399 -1.352,-1.594 -1.492,-1.774 -0.36,-0.418 -0.52,-0.816 -0.559,-1.316 -0.019,-0.637 0.238,-1.312 0.719,-1.754 0.058,-0.078 0.316,-0.297 0.555,-0.476 0.738,-0.618 1.039,-0.957 1.156,-1.278 0.082,-0.258 0.043,-0.496 -0.137,-0.715 -0.062,-0.058 -0.758,-0.918 -1.574,-1.894 -1.117,-1.313 -1.516,-1.793 -1.574,-1.813 -0.082,-0.019 -0.18,-0.019 -0.262,0.02 z"
           inkscape:connector-curvature="0" />
      </g>
    </g>
  </g>
</svg>
